 http://img215.imageshack.us/img215/3008/hauptplakat.jpg

Country.......: Germany
Genre.........: Fantasy, Horror, Romanse, Drama
Date release..: 14.10.2010 [World]
Director......: Dennis Gansel
Writers.......: Jan Berger, Dennis Gansel
Duration......: 95 min.
More..........: http://www.imdb.com/title/tt1692504
Trailer.......:

Pilot :
One fine evening, Lena are selected for the event. Then she meets the kolerzankę who likes her very much and promises of gold, clothes and hot drinks. Everything nice and beautiful, but one night kolerzanka it bites and it becomes a vampire. It will drink orange juice in order to survive, whether it succeed? Does no one will cross their path?

Cats :
Karoline Herfurth   	 ...  	Lena
Nina Hoss 	... 	Louise
Jennifer Ulrich 	... 	Charlotte
Anna Fischer 	... 	Nora
Max Riemelt 	... 	Kommissar Tom Serner
Walera Kanischtscheff 	... 	Wasja
Senta Dorothea Kirschner 	... 	Spusi Frau
Arved Birnbaum 	... 	Kommissar Lummer
Steffi Kühnert 	... 	Lenas Mutter
Ivan Shvedoff 	... 	van Gogh
Jochen Nickel 	... 	Lenas Bewahrungshelfer
Nic Romm 	... 	Olsen
Christian Nathe 	... 	Wachmann 1
Tom Jahn 	... 	Wachmann 2
Neil Belakhdar 	... 	Hotelpage 

Data Technical :
!!! SAMPLE !!!
Audio.....: German
Subtitles.: English .str, German .str
Format                           : AVI
Format/Info                      : Audio Video Interleave
File size                        : 1.28 GiB
Duration                         : 1h 35mn
Overall bit rate                 : 1 921 Kbps
Writing application              : VirtualDubMod 1.5.10.2 (build 2542/release)
Writing library                  : VirtualDubMod build 2542/release
Video
ID                               : 0
Format                           : MPEG-4 Visual
Format profile                   : Advanced Simple@L5
Format settings, BVOP            : Yes
Format settings, QPel            : Yes
Format settings, GMC             : 3 warppoints
Format settings, Matrix          : Default (MPEG)
Codec ID                         : XVID
Codec ID/Hint                    : XviD
Duration                         : 1h 35mn
Bit rate                         : 1 463 Kbps
Width                            : 704 pixels
Height                           : 288 pixels
Display aspect ratio             : 2.40:1
Frame rate                       : 25.000 fps
Color space                      : YUV
Chroma subsampling               : 4:2:0
Bit depth                        : 8 bits
Scan type                        : Progressive
Bits/(Pixel*Frame)               : 0.289
Stream size                      : 1 002 MiB (76%)
Writing library                  : XviD 58
Audio
ID                               : 1
Format                           : AC-3
Format/Info                      : Audio Coding 3
Mode extension                   : CM (complete main)
Codec ID                         : 2000
Duration                         : 1h 35mn
Bit rate mode                    : Constant
Bit rate                         : 448 Kbps
Channel(s)                       : 6 channels
Channel positions                : Front: L C R, Side: L R, LFE
Sampling rate                    : 48.0 KHz
Bit depth                        : 16 bits
Stream size                      : 307 MiB (23%)
Alignment                        : Split accross interleaves
Interleave, duration             : 40 ms (1.00 video frame)
Interleave, preload duration     : 500 ms

Screen : 
http://img818.imageshack.us/img818/3561/wirsinddienacht2010s1.jpg 
http://img849.imageshack.us/img849/9317/wirsinddienacht2010s2.jpg 
http://img685.imageshack.us/img685/1535/wirsinddienacht2010s3.jpg 
http://img685.imageshack.us/img685/6393/wirsinddienacht2010s4.jpg 
http://img835.imageshack.us/img835/6679/wirsinddienacht2010s5.jpg